<svg version="1.1" id="Layer_1" xmlns="http://www.w3.org/2000/svg" xmlns:xlink="http://www.w3.org/1999/xlink" x="0px" y="0px"
	 width="100%" viewBox="0 0 300 250" enable-background="new 0 0 300 250" xml:space="preserve">
<path fill="#FFFFFF" opacity="1.000000" stroke="none" 
	d="
M279.000244,251.000000 
	C186.000214,251.000000 93.500252,251.000000 1.000212,251.000000 
	C1.000141,167.666794 1.000141,84.333580 1.000071,1.000279 
	C100.999840,1.000186 200.999680,1.000186 300.999634,1.000093 
	C300.999756,84.333145 300.999756,167.666290 300.999878,250.999725 
	C293.833435,251.000000 286.666870,251.000000 279.000244,251.000000 
M138.382156,136.924347 
	C141.714859,139.004807 144.877258,141.461121 148.424393,143.068329 
	C152.633194,144.975327 157.264709,145.938354 161.517471,147.765656 
	C162.910889,148.364365 164.596802,150.432510 164.527771,151.743317 
	C164.440475,153.401627 163.026962,155.450378 161.577927,156.450119 
	C160.062790,157.495422 157.848816,157.727356 155.902008,157.913040 
	C147.254105,158.737778 139.494080,156.329056 132.356674,150.441879 
	C131.326416,155.206894 130.431549,159.345657 129.462128,163.829330 
	C142.542694,168.628830 155.321304,169.763382 168.152176,164.631439 
	C170.673477,163.623001 173.072998,161.708145 174.889282,159.647705 
	C181.246658,152.435867 179.110519,141.953262 170.364746,138.121078 
	C165.066849,135.799683 159.293930,134.575226 153.940887,132.359207 
	C152.310226,131.684158 150.360291,129.330688 150.388016,127.778648 
	C150.416565,126.181534 152.421844,124.226372 154.045151,123.170219 
	C155.453278,122.254066 157.523422,122.237007 159.324188,122.063393 
	C166.866089,121.336220 173.617645,123.611000 180.118347,128.441101 
	C181.082108,123.778687 181.904480,119.800278 182.777176,115.578400 
	C171.333252,111.736847 160.217499,110.640236 149.071625,114.183266 
	C138.129181,117.661636 133.893936,126.526459 138.382156,136.924347 
M103.927475,132.982315 
	C103.323250,132.308655 102.131058,131.548004 102.215645,130.976257 
	C102.600754,128.373322 103.345001,125.823524 104.008591,123.052139 
	C112.336380,123.052139 120.469452,123.052139 128.916962,123.052139 
	C129.726120,119.736443 130.492050,116.597893 131.369919,113.000595 
	C118.849701,113.000595 106.887733,112.952621 94.927994,113.093925 
	C93.996521,113.104927 92.458954,114.294357 92.249626,115.182686 
	C88.222733,132.271637 84.352455,149.397491 80.385391,166.798553 
	C93.354225,166.798553 105.962814,166.798553 118.908501,166.798553 
	C119.648277,163.720596 120.404175,160.575592 121.269531,156.975159 
	C112.700325,156.975159 104.599472,156.975159 96.158508,156.975159 
	C97.286247,152.096024 98.315094,147.644745 99.407921,142.916687 
	C107.332062,142.916687 114.949341,142.916687 122.611458,142.916687 
	C123.405937,139.536987 124.121712,136.492126 124.944839,132.990570 
	C118.088287,132.990570 111.468269,132.990570 103.927475,132.982315 
M180.233322,172.005875 
	C146.189148,172.005875 112.144958,172.005875 78.210754,172.005875 
	C78.210754,175.007828 78.210754,177.289490 78.210754,179.787491 
	C112.803307,179.787491 147.180618,179.787491 182.294296,179.787491 
	C181.897644,177.038818 181.539673,174.558273 180.233322,172.005875 
z"/>
<path fill="#132A81" opacity="1.000000" stroke="none" 
	d="
M138.180450,136.602600 
	C133.893936,126.526459 138.129181,117.661636 149.071625,114.183266 
	C160.217499,110.640236 171.333252,111.736847 182.777176,115.578400 
	C181.904480,119.800278 181.082108,123.778687 180.118347,128.441101 
	C173.617645,123.611000 166.866089,121.336220 159.324188,122.063393 
	C157.523422,122.237007 155.453278,122.254066 154.045151,123.170219 
	C152.421844,124.226372 150.416565,126.181534 150.388016,127.778648 
	C150.360291,129.330688 152.310226,131.684158 153.940887,132.359207 
	C159.293930,134.575226 165.066849,135.799683 170.364746,138.121078 
	C179.110519,141.953262 181.246658,152.435867 174.889282,159.647705 
	C173.072998,161.708145 170.673477,163.623001 168.152176,164.631439 
	C155.321304,169.763382 142.542694,168.628830 129.462128,163.829330 
	C130.431549,159.345657 131.326416,155.206894 132.356674,150.441879 
	C139.494080,156.329056 147.254105,158.737778 155.902008,157.913040 
	C157.848816,157.727356 160.062790,157.495422 161.577927,156.450119 
	C163.026962,155.450378 164.440475,153.401627 164.527771,151.743317 
	C164.596802,150.432510 162.910889,148.364365 161.517471,147.765656 
	C157.264709,145.938354 152.633194,144.975327 148.424393,143.068329 
	C144.877258,141.461121 141.714859,139.004807 138.180450,136.602600 
z"/>
<path fill="#0F2880" opacity="1.000000" stroke="none" 
	d="
M104.387863,132.986450 
	C111.468269,132.990570 118.088287,132.990570 124.944839,132.990570 
	C124.121712,136.492126 123.405937,139.536987 122.611458,142.916687 
	C114.949341,142.916687 107.332062,142.916687 99.407921,142.916687 
	C98.315094,147.644745 97.286247,152.096024 96.158508,156.975159 
	C104.599472,156.975159 112.700325,156.975159 121.269531,156.975159 
	C120.404175,160.575592 119.648277,163.720596 118.908501,166.798553 
	C105.962814,166.798553 93.354225,166.798553 80.385391,166.798553 
	C84.352455,149.397491 88.222733,132.271637 92.249626,115.182686 
	C92.458954,114.294357 93.996521,113.104927 94.927994,113.093925 
	C106.887733,112.952621 118.849701,113.000595 131.369919,113.000595 
	C130.492050,116.597893 129.726120,119.736443 128.916962,123.052139 
	C120.469452,123.052139 112.336380,123.052139 104.008591,123.052139 
	C103.345001,125.823524 102.600754,128.373322 102.215645,130.976257 
	C102.131058,131.548004 103.323250,132.308655 104.387863,132.986450 
z"/>
<path fill="#0D2680" opacity="1.000000" stroke="none" 
	d="
M180.707520,172.041809 
	C181.539673,174.558273 181.897644,177.038818 182.294296,179.787491 
	C147.180618,179.787491 112.803307,179.787491 78.210754,179.787491 
	C78.210754,177.289490 78.210754,175.007828 78.210754,172.005875 
	C112.144958,172.005875 146.189148,172.005875 180.707520,172.041809 
z"/>
</svg>